<svg width="1200" height="630" viewBox="0 0 1200 630" xmlns="http://www.w3.org/2000/svg">
  <defs><linearGradient id="bg" x1="0" y1="0" x2="1" y2="1"><stop offset="0%" stop-color="#1a2a3a"/><stop offset="100%" stop-color="#243447"/></linearGradient></defs>
  <rect width="1200" height="630" fill="url(#bg)"/>
  <rect x="0" y="0" width="1200" height="8" fill="#e74c3c"/>
  <ellipse cx="350" cy="170" rx="35" ry="18" fill="#7f8c8d"/>
  <rect x="315" y="170" width="70" height="220" rx="18" fill="#7f8c8d"/>
  <rect x="335" y="220" width="30" height="50" rx="4" fill="#ffffff55"/>
  <text x="350" y="245" text-anchor="middle" fill="#555" font-size="10" font-weight="bold" font-family="Arial">OLD</text>
  <path d="M 350 250 Q 350 280 350 310" stroke="#f39c12" stroke-width="4" fill="none" stroke-dasharray="8 4"/>
  <ellipse cx="600" cy="170" rx="35" ry="18" fill="#c0392b"/>
  <rect x="565" y="170" width="70" height="220" rx="18" fill="#c0392b"/>
  <rect x="585" y="220" width="30" height="50" rx="4" fill="#ffffffaa"/>
  <text x="600" y="245" text-anchor="middle" fill="white" font-size="10" font-weight="bold" font-family="Arial">NEW</text>
  <path d="M 600 250 Q 600 280 600 310" stroke="#2ecc71" stroke-width="4" fill="none" stroke-dasharray="8 4"/>
  <ellipse cx="850" cy="170" rx="35" ry="18" fill="#27ae60"/>
  <rect x="815" y="170" width="70" height="220" rx="18" fill="#27ae60"/>
  <rect x="835" y="220" width="30" height="50" rx="4" fill="#ffffffaa"/>
  <text x="850" y="245" text-anchor="middle" fill="white" font-size="10" font-weight="bold" font-family="Arial">SERVICED</text>
  <rect x="280" y="430" width="640" height="40" rx="8" fill="#ffffff11"/>
  <text x="600" y="456" text-anchor="middle" fill="#ffffff88" font-size="14" font-family="Arial">Replace every 5-12 years · Check monthly · Recharge after use</text>
  <text x="600" y="595" text-anchor="middle" fill="#ffffff66" font-size="20" font-family="Arial">AlarmBeepGuide.com</text>
</svg>
