<svg width="1200" height="630" viewBox="0 0 1200 630" xmlns="http://www.w3.org/2000/svg">
<defs><linearGradient id="bg" x1="0" y1="0" x2="1" y2="1"><stop offset="0%" stop-color="#1a2a3a"/><stop offset="100%" stop-color="#243447"/></linearGradient></defs>
<rect width="1200" height="630" fill="url(#bg)"/><rect x="0" y="0" width="1200" height="8" fill="#f39c12"/>
<circle cx="450" cy="280" r="90" fill="#2d3e50" stroke="#ffffff33" stroke-width="3"/>
<circle cx="450" cy="280" r="55" fill="#1a2a3a"/>
<circle cx="450" cy="280" r="25" fill="#f39c1255"/>
<circle cx="380" cy="200" r="5" fill="#ffffff66"/><circle cx="410" cy="185" r="4" fill="#ffffff44"/>
<circle cx="490" cy="190" r="5" fill="#ffffff55"/><circle cx="520" cy="210" r="4" fill="#ffffff33"/>
<circle cx="375" cy="360" r="4" fill="#ffffff55"/><circle cx="525" cy="355" r="5" fill="#ffffff44"/>
<circle cx="395" cy="380" r="3" fill="#ffffff33"/>
<path d="M 560 220 Q 600 210 640 220" stroke="#3498db" stroke-width="3" fill="none" opacity="0.6"/>
<path d="M 570 200 Q 620 185 670 200" stroke="#3498db" stroke-width="3" fill="none" opacity="0.4"/>
<text x="610" y="250" text-anchor="middle" fill="#3498db" font-size="13" font-family="Arial">Soft brush</text>
<rect x="680" y="220" width="140" height="100" rx="8" fill="#ffffff11"/>
<text x="750" y="245" text-anchor="middle" fill="#f39c12" font-size="13" font-family="Arial" font-weight="bold">CLEAN</text>
<text x="750" y="270" text-anchor="middle" fill="#ffffff66" font-size="11" font-family="Arial">• Vacuum vents</text>
<text x="750" y="290" text-anchor="middle" fill="#ffffff66" font-size="11" font-family="Arial">• Compressed air</text>
<text x="750" y="310" text-anchor="middle" fill="#ffffff66" font-size="11" font-family="Arial">• No sprays/paint</text>
<text x="600" y="595" text-anchor="middle" fill="#ffffff66" font-size="20" font-family="Arial">AlarmBeepGuide.com</text>
</svg>
