<svg width="1200" height="630" viewBox="0 0 1200 630" xmlns="http://www.w3.org/2000/svg">
  <defs><linearGradient id="bg" x1="0" y1="0" x2="1" y2="1"><stop offset="0%" stop-color="#1a2a3a"/><stop offset="100%" stop-color="#243447"/></linearGradient></defs>
  <rect width="1200" height="630" fill="url(#bg)"/>
  <rect x="0" y="0" width="1200" height="8" fill="#27ae60"/>
  <ellipse cx="480" cy="180" rx="35" ry="20" fill="#c0392b"/>
  <rect x="445" y="180" width="70" height="220" rx="20" fill="#c0392b"/>
  <rect x="470" y="140" width="20" height="30" rx="4" fill="#7f8c8d"/>
  <rect x="460" y="135" width="40" height="12" rx="4" fill="#95a5a6"/>
  <path d="M 515 150 Q 540 160 535 200" stroke="#7f8c8d" stroke-width="8" fill="none"/>
  <rect x="455" y="230" width="50" height="120" rx="4" fill="#ffffff" opacity="0.9"/>
  <text x="480" y="270" text-anchor="middle" fill="#c0392b" font-size="20" font-weight="bold" font-family="Arial">ABC</text>
  <rect x="580" y="170" width="280" height="240" rx="8" fill="#ffffff"/>
  <rect x="580" y="170" width="280" height="36" rx="8" fill="#2ecc71"/>
  <text x="720" y="194" text-anchor="middle" fill="white" font-size="16" font-weight="bold" font-family="Arial">INSPECTION</text>
  <path d="M 602 232 L 606 236 L 612 228" stroke="#2ecc71" stroke-width="2" fill="none"/>
  <rect x="625" y="225" width="220" height="6" rx="3" fill="#cbd5e0"/>
  <path d="M 602 267 L 606 271 L 612 263" stroke="#2ecc71" stroke-width="2" fill="none"/>
  <rect x="625" y="260" width="200" height="6" rx="3" fill="#cbd5e0"/>
  <rect x="600" y="295" width="14" height="14" rx="2" fill="none" stroke="#2ecc71" stroke-width="2"/>
  <rect x="625" y="295" width="180" height="6" rx="3" fill="#cbd5e0"/>
  <rect x="600" y="330" width="14" height="14" rx="2" fill="none" stroke="#f39c12" stroke-width="2"/>
  <rect x="625" y="330" width="210" height="6" rx="3" fill="#cbd5e0"/>
  <rect x="600" y="365" width="14" height="14" rx="2" fill="none" stroke="#cbd5e0" stroke-width="2"/>
  <rect x="625" y="365" width="160" height="6" rx="3" fill="#cbd5e0"/>
  <text x="600" y="595" text-anchor="middle" fill="#ffffff66" font-size="20" font-family="Arial">AlarmBeepGuide.com</text>
</svg>
