<svg width="1200" height="630" viewBox="0 0 1200 630" xmlns="http://www.w3.org/2000/svg">
  <defs><linearGradient id="bg" x1="0" y1="0" x2="1" y2="1"><stop offset="0%" stop-color="#1a2a3a"/><stop offset="100%" stop-color="#243447"/></linearGradient></defs>
  <rect width="1200" height="630" fill="url(#bg)"/>
  <rect x="0" y="0" width="1200" height="8" fill="#9b59b6"/>
  <polygon points="600,130 420,270 420,460 780,460 780,270" fill="#ffffff11" stroke="#ffffff33" stroke-width="2"/>
  <rect x="470" y="310" width="80" height="120" rx="8" fill="#1a2a3a" stroke="#9b59b644" stroke-width="2"/>
  <circle cx="510" cy="330" r="8" fill="#2ecc71"/><rect x="480" y="350" width="60" height="4" rx="2" fill="#9b59b666"/><rect x="480" y="365" width="50" height="4" rx="2" fill="#9b59b644"/>
  <rect x="540" y="310" width="60" height="50" rx="6" fill="#3498db" opacity="0.6"/>
  <text x="570" y="340" text-anchor="middle" fill="white" font-size="11" font-family="Arial">CAM</text>
  <rect x="620" y="310" width="50" height="40" rx="4" fill="#f39c12" opacity="0.6"/>
  <circle cx="700" cy="330" r="20" fill="#e74c3c" opacity="0.5"/>
  <path d="M 600 250 L 600 200" stroke="#9b59b6" stroke-width="2" stroke-dasharray="4 4"/>
  <circle cx="600" cy="190" r="15" fill="#9b59b6"/>
  <text x="600" y="195" text-anchor="middle" fill="white" font-size="12" font-weight="bold" font-family="Arial">!</text>
  <rect x="300" y="490" width="600" height="30" rx="6" fill="#ffffff11"/>
  <text x="600" y="510" text-anchor="middle" fill="#ffffff66" font-size="13" font-family="Arial">Wired · Wireless · Self-monitored · Professional</text>
  <text x="600" y="595" text-anchor="middle" fill="#ffffff66" font-size="20" font-family="Arial">AlarmBeepGuide.com</text>
</svg>
